/* XPM */
static char *bc2a284b275a4564b18944a3892fcce5hCL0vXDVGECayZZb[] = {
/* columns rows colors chars-per-pixel */
"64 64 82 1 ",
"  c #1C76B1",
". c #1B78BC",
"X c #187AC6",
"o c #177BCF",
"O c #1A7ED7",
"+ c #1A7FDE",
"@ c #267DCA",
"# c #3985D4",
"$ c #3B86DB",
"% c #1880E5",
"& c #1782EC",
"* c #0081F4",
"= c #0B82F4",
"- c #1382F4",
"; c #1D83F4",
": c #2384F4",
"> c #2C86F4",
", c #3187F4",
"< c #3588F4",
"1 c #3B8AF4",
"2 c #4289E2",
"3 c #4D8DE7",
"4 c #5491EC",
"5 c #438CF5",
"6 c #4B8FF5",
"7 c #4E90F5",
"8 c #5492F5",
"9 c #5B95F5",
"0 c #6097F5",
"q c #6499F5",
"w c #6D9DF5",
"e c #719FF6",
"r c #7AA1E4",
"t c #76A2F6",
"y c #7BA5F6",
"u c #9EB8EC",
"i c #80A7F6",
"p c #84AAF6",
"a c #8BAEF7",
"s c #8FB0F7",
"d c #93B3F7",
"f c #99B6F7",
"g c #9DB9F7",
"h c #95B4F8",
"j c #9DB9F8",
"k c #A5BEF4",
"l c #A3BDF8",
"z c #A8BFF8",
"x c #AEC4F6",
"c c #ABC2F8",
"v c #B2C6F9",
"b c #B5C9F9",
"n c #BBCDFA",
"m c #BFD0FA",
"M c #C2D1F5",
"N c #C4D3FA",
"B c #C9D7FB",
"V c #CDD9FB",
"C c #D0DBFB",
"Z c #D3DEFB",
"A c #D4DFFB",
"S c #D7E1FB",
"D c #D6E0FC",
"F c #DAE3FB",
"G c #DBE3FC",
"H c #DCE4FC",
"J c #DDE5FC",
"K c #E0E7FC",
"L c #E1E8FC",
"P c #E4EBFD",
"I c #E6ECFD",
"U c #E8EDFD",
"Y c #ECEFFD",
"T c #EBF0FD",
"R c #ECF0FD",
"E c #F0F4FD",
"W c #F1F4FE",
"Q c #F4F7FE",
"! c #F6F8FE",
"~ c #FAFBFE",
"^ c #FBFCFF",
"/ c #FCFCFF",
/* pixels */
"*******************************=-;;;:>>115899qew8>=*************",
"****************************;<580wtyialcvnNNNNVBct5;************",
"**************************;6yjlvbNBBZJUEE!~~!!~~UNhw5:=*********",
"***********************-:5wlZTTYREQ!!^///////////QLNli91:;=*****",
"******************=;:>1qpgNL~//^~!!~~~/////////////~RGnlaw5:****",
"***************-:<8tpalNJUQ///QRUTE!^//~QRUUURQ~//////!RPVj8-***",
"***********=;>59tdxVGFU~/////~QE!~^/^~QUSBZUILJJLT!//////~Jh5-**",
"********-:<8wpfvBGU!/^//////////////^^^QULU^/~QRILIE~/////!Zd6=*",
"******=<0phcNVJT!^////////////////^~~~///~~///////^~///////!Bt;*",
"******:wcZKUE!~/^~^^////////////~QRILLUIUR!~////////^ERE~///La>*",
"******1aG~//^~~~/////////////////^~QRPJAZJUE!///////~REQ~^~RNt;*",
"******1aJ~^^/////////~~~~ERR~////////^~EE!~~/~!Q!~~^!~/^RLZvp5**",
"******:wnE///////~QRLDZVBxglNP!~~//////////~QRRTE~~/~!!INft9>=**",
"******=5hJ//^~QRJZnldpttw6<5wjnVSLUE!~/////~~~!~~!EIJZNlt5:=****",
"*******-qcGLSBblat95>:;;;=**;10tidlbBDLRE~~//~QUJVNcdyw6>=******",
"********,0pat95,:;-***********-;:>59epdlnBAPRJBvfpw8<:;*********",
"*********-::;-*********************-;:>59epjzhy95>;=************",
"****************************************-;>15<:-****************",
"***************-;=**************************=*******************",
"**********=:>,59q81:;;-=;::-************************************",
"*******=;<9yhfcnBvfpteq0tapq1-=*********************************",
"****=;<8tdvZLPUE~RKZZCBBSPLNdq8<-*******************************",
"*=;<8tscNGU!//////^~~~~~///!LBba7=******************************",
":6tdcNGIE~/~~QEEQ!~//////////!EVa1******************************",
"6aNJUQ~/!ERURUTE~//////////////ENy<=****************************",
"qnE//~QERRREQ!~~^///^////////~!^Iny1****************************",
"qnQ//^~!!~/~!QRE////////////^LFE~Ubq-***************************",
"6dCE////!EUPPIUE//////~QUIE/EVnP~^Ay:***************************",
":9dBE//^ELGUE!!//////EJNcbF!!JVR^Enw;***************************",
"=8hNJR!^~EE//~~~//!UJBbvnBL!/ER~UNa5=***************************",
":yBEERTQ///^^~!!//EJZAJLTE!///^Pbp5-****************************",
">aL///~!!QQ~^/////^EEQ~/~!~~//Uby1=*****************************",
";wNE^////~!!!~//////!QERRRE~/Rny1=*******=**********************",
"*5inJE^///////////!RUTRRE!~/ENy1=******->1,;********************",
"*=>9abGE//////~!EEEEQ~~/~!QEBa1=******-6yfp0>=******************",
"***=,9pnJREEE!//~~/~QERPGVNba6=******;7hVUJby7>:;-**************",
"*****=,9pllcbBJUUULGVNvlsye91;**=---<0fA!//RAvhpe95,:;-*********",
"*******=:,,18tdlccjsyw95>:;:,<<5890tfNL!////^QUGVncjsyq86<,;=***",
"************=:16861>:;-***1efzcvnNCJR~/////////^~QERPJAVNblt6-**",
"***************===*******>yNREEE!~^/////////////////////^QTNy>**",
"************************;0nQ///////////////////^///////////Tj5=*",
"***********************=6hJ///////////~^~!QRUUKJPTE~^/////^Ja<**",
"***********************5dZ!////////~!!!~^~!JBmNBSIE~/^~!~^Uvq;**",
"*******************=**;tN!////////////////^EUURQ~///~QE!^Ube>***",
"*****************;<5<;>pL////////////////////////////^//ENy<****",
"***************=>qsldw5tnR!/////////~!ERRRE!~///~!EERRRRCd5=****",
"************-;>6yvGRJnfpdnU////~~~~~EEUIIRE~/~ELCmnbvvbca8;*****",
"********=;>59eplBU~/~RJVbbJ~!QQQQ!~^//~~~//QPCbdw8888887<;******",
"*****-:<8wpfvNZPE^~!!~~!RPJJABBBBVDJLPUR!~RZcp91;==----=********",
"*-;>50yhcNVJUE!^^~UZSUQ~/~QUDNcfspadflcnVAna8,-*****************",
"50talNGIRQ!^~!QRILBNCU~///^/!RJBcpq7158qty01-*******************",
"lnVJU!////~~!ERILLIR!///////~~~EPVbht8<:::-*********************",
"RE!^////////////////////////QIUQ/QUJNlpw8<-*********************",
"//~E~/////////////////^~Q!~!JmnZPE~~EPDBbp6=********************",
"^~UZU//////////////////~QEEUJCNnNALR!/~~ENt:********************",
"!!DlvKQ//~~~///////////////~~!ETPLLUE~///Ig91>::;;-*************",
"EQZawfNP!^!Q!^/~~!!~~////////////^^/////~UBvldpiyw91-***********",
"R^PnhhlNGR^//~UFZVZDJPURQ~~^////////////^~QERIKJGZna7=**********",
"R/!UJFJJLU!/~RKGGJFDDGJJPTREE!~^//////~^/////////^QBt;**********",
"U///~~~~~!~~~~QQ~^~!QQQQQ!!!!~~~///////////////////Pa>**********",
"MTRUUUUTREQ!QQQQ~^~QQQQQQQQQQQQQEEEERRRRUUURREEQQERNe;**********",
"rukkxxvvnNBBBBBVAJAVBBBBBBBBBBBNnbvvvvxcljjjlcxvbvly5***********",
"@#$234890wtttttypapytttttttttttw098888861<,,>,<111<;************",
" .XoO+%&&;;;;;;:::::;;;;;;;;::;;-------=************************"
};
