/* XPM */
static char *_a6b24826fa947f0b424a9c3eb137876ECnNNn5jcAz4TLSi[] = {
/* columns rows colors chars-per-pixel */
"64 64 38 1 ",
"  c #276500",
". c #286700",
"X c #2B6B01",
"o c #2E7202",
"O c #317603",
"+ c #337C05",
"@ c #368206",
"# c #398507",
"$ c #3A8907",
"% c #398708",
"& c #3A8908",
"* c #3C8B08",
"= c #3B8C08",
"- c #3C8C08",
"; c #3F930B",
": c #40920A",
"> c #40940A",
", c #42970B",
"< c #41970C",
"1 c #42990C",
"2 c #449B0D",
"3 c #439C0C",
"4 c #469F0E",
"5 c #47A00E",
"6 c #47A30E",
"7 c #48A30F",
"8 c #48A40F",
"9 c #4BA90F",
"0 c #46A210",
"q c #48A410",
"w c #4AA610",
"e c #4BA810",
"r c #4CAB10",
"t c #4CAB11",
"y c #4FAF12",
"u c #4EB012",
"i c #50B213",
"p c #50B313",
/* pixels */
"8777wtyye4<;;<54;@OXXX.    .XXXXoooooooooooooooooXXXXX..        ",
"ee878wew74>;:4yt1%+oXXX.. .XXXXoOO++++++++++++++OOoXXXX..       ",
"ytw755544>;-;155<%+OoXXX..XXXXoO+++@@@@@@@@@@@@+++OOoXXXX..     ",
"ye854421>;-&-;>>-%+OooXXXXXXooO+@@&&---&&$$&&&&%%@+++ooXXX..    ",
"ew5411<>;-&$&----%@++OooXXXXoO+@%-;>1<<>;-;:><:;-&%@++OoXXX.    ",
"554111<;-&%%&-;;;-%@@+++OoooO+@%->457w8541144441>;-&%@+OoXXX.   ",
"11><144<-&%&-;<11>;*&&-&#+O++@%->48etyye5458ww8541>;-%@+ooXX..  ",
";;;>4ew1-&&->245541;;>44;%++@%&;17eyuuiyw78eyytw7541>-%++oXXX.. ",
"---;2w81--;145wte84<>4te2-#@@&->48yiuyyyteeyiiyeww854>-%+OOooXX.",
"&$&-:11;=-18eetuue51<4871-$&&-;>27eyyteyytetyyyeetee72;%@+@%@+oX",
"*&&%$**%%;7uiytyyw41<122>-*--;;<14788w8eyewweteetyuyw4>-%%-11%+X",
";&&%@@++%;wiitwww5411221<:;:><<<11444445755578wwtyiye5>-$&>88;+o",
"<;-%@+++@-4ee744444458ww532244411<111<<>11144557wtyt84<-&&;11-@+",
"41;&@++O+%->1>>>147eyyuue5588w741<>>>:::>><<112458w852>;---;;&%@",
"w5<-%++OO+@%&=->48yuiiiiuwweytw41<:;;;;:<><<><<114442>>;;;;;:;-%",
"t71;%++OoO+@%&-1wyiiiiiiywwyiye51>;-;;:><12441>::>><>;:><<1121>;",
"t71;%++ooo+#&->4yiiiiiiyw8weyt8542>;;>12448ee4:---;;;;><24577541",
"w5<-%+OooO@-124wuiiiiuyw545www55781:;<4588yiu8>*&&*-;;<457wetew5",
"41;&@+Ooo+%>ww58yiuuut74224454449y5<>15wytyyy5>-**--;<45wetyyuy8",
">;&@++Ooo+$1we558eee8521124421><451;:17tuyte81;;;;;;;<4wtyyuiiyw",
"*%@++++OO+@;24444444211444421>;;;;--;15eyye84<;>44<;:15eyuuuuyy8",
"@+++++@+++@&;1244443224788541;-&&%%$->48eeew4>:4ee4:;15euiuyytw5",
"++++@&;-%@@$;1478854448ette51;-%#@@%&->258ty7<;>55>-;<4wyyyte852",
"OoO+%<54-%%&;28eye8555wyuut72:*%@+++@%-:15ey5;&-;;-$*;15www8541;",
"XXo+%3t8;$%&;4wyuye87weyuye71;&@+++++@%&-<24>&#@@@@#%&:144441<;-",
"XXXO@;42;&%&;28yute88weyyye51-%@+OOO+++@%&--%@+O++++@%-;<>>:;-&%",
"XXXo+$:1<-&&;158eew78wyyyt84>-%++Oo++++++++++OooOO+++@&=---*$%@+",
"XXXo+@:50>&$->2555558eyiut71;&@+Oo++%&%@++OOooooo+++@%$--&&%@++O",
"Xoo++%;75<&$-;>11445weyiut5<-%@+oO+%>4:&@++oooooO++@%&-::-%@+Ooo",
"oO+@%&;1<;-&&--:>125wtyuye5>-%++oo+-5y4>;-%+OoOO++@%&-144>&@+ooX",
"+@&->>>>>;--&*--;<47eyuuyw4>*#++OO+&1w44551&+OO+@%&-;>5ee4-@+OXX",
"+$;475421<>;-=&-;15wtyuuy82;&@@@@@@@*>18yu8;@++@%-;<115882;&%+oX",
"#;2wyyw8542>;-&=;4wyyyyyw5<-%%%->;$@@&>8uuw>%+@%->24554421>>>&+X",
"&>5tuyyeew74>-&&;4tiiyew51;&#%-4e8>#+@-49e4;%+@&;27ee841<>2w8;+o",
"-28tyyyyyye51;&&;4eiut841;*%@%>eiy4%++%-<1;&@@%->4eyye51;;1w8;+o",
";4wyuyyuiuy71;&&;48yt74>;-%@+@-5e8>%++@%=-&%#@%->5eyye4>;-;<>&+X",
">4eyiuuyuyt51;&&;48841<-&%%@++%;<>-%@@%&--;--&&-<48ee72;&%%%@+oX",
">4eyiuyyytw4>-&$<we4>;-&&$%@++@@%%%%$&-;14541:-->14554>;&%@+OoX.",
">5eyuyyte851;&%%;44>;--=*&&%@@+@@@%&->148tyyw4>;;><11<:;&%@+oXX.",
"18yuiuytw52;-%@@&-;;-------*&%%#@%&-<47eyuiiuw2;;;;;:;;:;;&+OXXX",
"4yipiiiye71-&@@@%&-;:<<>:;;:;-&&&&->28tyuiiiie4>;;;--;>255>%+oXX",
"5yppiiiiyw1-%@@@%&;>1444214441>---;>4wyiiiiiit51<>;--->5yy4&+OXX",
"3yppipiiie1&@++@%-<4788755www84>;-;<4wyuuuiiye8541>;-->275<*++oX",
";5yuiiiiuw>%+++@&;28tytw8wtyuy84>;;>25wttyyyeew8741:--;>11:&@+Oo",
"%;4wetye81-++++%-;4eyiyeeeyiiue4<;-;>24578888eyye52>;;;><>>-%@+O",
"+@&;><1<;&@+++@%->5eyuyewtyiiue4>----:<111447eyuy84<::>1221>-%@+",
"O+++@%%@@++O++@&-15eyyewwwtyuy84;-&$*-;:>><25wyye74<<1478854>-@+",
"O+++++++++O++@%*;18yye85558we84>-&%%&-:>>>><458w851>>4wyyye71;%+",
"++@@%%@@++++@%-;>4wyyw41124441>-&%@%->442><><24441>:>4tuuiyw4;&@",
"@%&-:>>-&@@%&-:148wew4>>::;>:;*$@+@%;4eew41;;;>>>;;;>4wtyyt82;&@",
"&-<48w84<-&-;<45wtye51;---**--$@+++%;7yyyw4;-*-----;;>478w841-%+",
"-15eyuut5>;;>47wtuut5>-&%%%&->-@+++@;4eyut4;&%%%&*;<1<<12421;&@+",
"<5eyiiiuw2<147eyuyye4;-%@++%<w<%+++@=>48e71-&%@@%-<551>;;;;-&%@+",
"18yiiiiuw4145wyuiyy84;&@+++@>8>@+++@&;1454<-%@++@&4yy4;&&&&&%@++",
"18ypiiuy84458tyuiye71-%++O+@&;%+O++%->4444<-&@+++%;44>$%@@%@@@++",
"15eyyye84447eyyuyyw4>*%++++@%%+OO+@&;15ww54:&@++++%&&%@+++@@@@++",
">4588854114wtyuyye72;&@+++$;;$++O+@*>4wyyw4<-%+OoOO++++O++++@@@@",
"-:<11111445wyuuytw4<-%+++@;55;@+O+@*>4euue741-@OoXXXXoooO++@%%&$",
"%&--;;<4w558tuuye52:&@+OO@;55;@OO+@&:48etw8et4&OXXXXXXXoO++#&-;;",
"+@%%&&<8u845wtte74>-%++oo+%;;%+oo++%-14555wuiw-+XXX.XXXoO+@&;<11",
"++++@@-151<257754>-&@+OoXoO+++oooO+@&;>1114et4%oXX. .XXo++%-<478",
"oOOO++@&---;<111>-&@+OoXXXXXXXXXXo++@%----;>>&+oXX..XXXo+@&;17ty",
"XooooO+++@%&--;-&%@+OoXX. .XXXXXXoo++@@%%@@@@+oXXX...XXo+@&;4wyi",
"XXXXXoooO++@@%%%@++OoXXX.     .XXXooO++++++OOoXXX. .XXXo+@&;18ty"
};
